<?xml version="1.0" encoding="utf-8"?>
<!-- Generator: Adobe Illustrator 24.3.0, SVG Export Plug-In . SVG Version: 6.00 Build 0)  -->
<svg version="1.1" id="Capa_1" xmlns="http://www.w3.org/2000/svg" xmlns:xlink="http://www.w3.org/1999/xlink" x="0px" y="0px"
	 viewBox="0 0 381.5 173.5" style="enable-background:new 0 0 381.5 173.5;" xml:space="preserve">
<g>
	<g>
		<g id="Layer_5_13_">
			<g>
				<path d="M353.2,78.9c1.2-2.6,9.5-13.6,17.1-25.1c0,0,0,0,0,0c1.7-2.6,3.4-5.2,4.9-7.7c0-0.1,0.1-0.1,0.1-0.2
					c0.2-0.4,17.9-28.6-7.2-17.2c0,0,0,0,0,0c-4.7,2.4-10.7,6-18.2,11.1c-16.4,11-49.9,27.2-49.9,27.2s-5.8,3.1-9.7,0.7
					c-19.4-12.1-47.7-33.6-84.9-45.6c-0.6-0.2-1.4-0.7-0.3-1.7l16-11.2c0,0,1.2-1.1-0.4-1.6c-7.9-2.6-40.8-13.6-69.2-3.5
					c-5.8,2.1-10.6,3.8-14.5,5.2c-1.7,0.6-3.4,1.3-6.8,1.7C52.5,13.7,0,70.7,0,93.2c0,15.1,8.2,25.3,37.9,39.4
					c0.6-0.1,5.1,3.2,15.1,0.2c2.7-0.8,21.7-8,22.5-8.3c0.8-0.3,1.2-0.5,1.6-0.5c0.4,0.1,0.7,1,0.7,1.1c-0.1,5.4-10.2,9.7-15.9,14.5
					c-1,0.5-1.2,2.7,0.5,3.5c0,0,20.2,10.9,52.3,14.2c2.6,0.3,36.3,21.9,70.4,16.1c18-3.1,26.6-4.1,30.5-5.2c3.4-0.9,1.8-2,1.8-2
					l-17.1-13.6c-1.2-1.3-0.2-2.3,0.7-2.5c37.9-10.8,67.8-27.8,85.7-42.3c2.4-2,8.6,2.7,13.1,5c14.8,7.5,76.2,32.8,81.3,27.4
					c0.4-0.5,0.5-1.1,0-2.1C372.5,120,341.2,104.5,353.2,78.9z M62.8,77.1c-5.5,0-9.9-4.5-9.9-10.1S57.4,57,62.8,57
					s9.9,4.5,9.9,10.1S68.3,77.1,62.8,77.1z M107.1,134.5c-0.6,0.5-1.2,1.4-0.8,0.2c0,0,15.4-23.2,17.4-53.2
					c1.5-22.5-13.5-50-13.5-50s0-0.8,0.6-0.2C116.1,37.7,168.6,79.2,107.1,134.5z" fill="#fa8072"/>
			</g>
		</g>
	</g>
</g>
</svg>
